<svg xmlns="http://www.w3.org/2000/svg" style="display:none">
  <symbol id="icon-house" viewBox="0 0 24 24">
    <path fill="none" stroke="currentColor" stroke-width="1.6" stroke-linecap="round" stroke-linejoin="round" d="M3.5 11.5 12 4l8.5 7.5M6 10v9a1 1 0 0 0 1 1h10a1 1 0 0 0 1-1v-9M10 20v-5a1 1 0 0 1 1-1h2a1 1 0 0 1 1 1v5"/>
  </symbol>
  <symbol id="icon-phone" viewBox="0 0 24 24">
    <path fill="none" stroke="currentColor" stroke-width="1.6" stroke-linecap="round" stroke-linejoin="round" d="M6.5 3.5h2.7l1.3 4.2-2 1.6a12.6 12.6 0 0 0 6.2 6.2l1.6-2 4.2 1.3v2.7c0 1-.9 1.8-1.9 1.7C10.9 18.6 5.4 13.1 4.8 5.4c-.1-1 .7-1.9 1.7-1.9Z"/>
  </symbol>
  <symbol id="icon-mail" viewBox="0 0 24 24">
    <path fill="none" stroke="currentColor" stroke-width="1.6" stroke-linecap="round" stroke-linejoin="round" d="M4 6h16v12H4zM4 6l8 7 8-7"/>
  </symbol>
  <symbol id="icon-pin" viewBox="0 0 24 24">
    <path fill="none" stroke="currentColor" stroke-width="1.6" stroke-linecap="round" stroke-linejoin="round" d="M12 21s7-6.1 7-11.5A7 7 0 0 0 5 9.5C5 14.9 12 21 12 21Z"/>
    <circle cx="12" cy="9.5" r="2.3" fill="none" stroke="currentColor" stroke-width="1.6"/>
  </symbol>
  <symbol id="icon-check" viewBox="0 0 24 24">
    <path fill="none" stroke="currentColor" stroke-width="1.8" stroke-linecap="round" stroke-linejoin="round" d="m4 12.5 5 5L20 7"/>
  </symbol>
  <symbol id="icon-menu" viewBox="0 0 24 24">
    <path fill="none" stroke="currentColor" stroke-width="1.6" stroke-linecap="round" d="M4 7h16M4 12h16M4 17h16"/>
  </symbol>
  <symbol id="icon-close" viewBox="0 0 24 24">
    <path fill="none" stroke="currentColor" stroke-width="1.6" stroke-linecap="round" d="m5 5 14 14M19 5 5 19"/>
  </symbol>
  <symbol id="icon-facebook" viewBox="0 0 24 24">
    <path fill="currentColor" d="M13.5 21v-7.6h2.6l.4-3H13.5V8.4c0-.9.3-1.5 1.6-1.5h1.7V4.2C16.5 4.1 15.4 4 14.2 4c-2.5 0-4.2 1.5-4.2 4.3v2.1H7.4v3h2.6V21z"/>
  </symbol>
  <symbol id="icon-tiktok" viewBox="0 0 24 24">
    <path fill="currentColor" d="M16.6 3c.4 2 1.7 3.4 3.9 3.6v2.6c-1.4.1-2.6-.3-3.9-1.1v6.6c0 3.3-2.7 5.6-5.7 5.3-2.5-.2-4.4-2.3-4.4-4.8 0-2.7 2.2-4.8 4.8-4.8.3 0 .6 0 .9.1v2.7a2.1 2.1 0 0 0-.9-.2 2.2 2.2 0 1 0 2.2 2.2V3z"/>
  </symbol>
  <symbol id="icon-instagram" viewBox="0 0 24 24">
    <rect x="3.5" y="3.5" width="17" height="17" rx="5" fill="none" stroke="currentColor" stroke-width="1.6"/>
    <circle cx="12" cy="12" r="4.2" fill="none" stroke="currentColor" stroke-width="1.6"/>
    <circle cx="17.2" cy="6.8" r="1.1" fill="currentColor"/>
  </symbol>
  <symbol id="icon-star" viewBox="0 0 24 24">
    <path fill="currentColor" d="m12 3 2.6 5.6 6.1.6-4.6 4.1 1.3 6-5.4-3.1-5.4 3.1 1.3-6-4.6-4.1 6.1-.6z"/>
  </symbol>
  <symbol id="icon-chat" viewBox="0 0 24 24">
    <path fill="none" stroke="currentColor" stroke-width="1.6" stroke-linecap="round" stroke-linejoin="round" d="M4 5.5h16v11H9l-4 3.5v-3.5H4z"/>
  </symbol>
</svg>
